<svg id="_22_Icons_Line_Message_circle" data-name="22) Icons/Line/Message circle" xmlns="http://www.w3.org/2000/svg" width="19.995" height="20" viewBox="0 0 19.995 20">
  <path id="Shape" d="M10.044,20a9.858,9.858,0,0,1-3.928-.812,1.233,1.233,0,0,0-.487-.1,1.088,1.088,0,0,0-.15.009l-4.259.857H.994a.989.989,0,0,1-.968-1.2L.9,14.543a1.052,1.052,0,0,0-.09-.638A9.962,9.962,0,0,1,9.95,0a9.879,9.879,0,0,1,7.063,2.942l.05.02A9.968,9.968,0,0,1,10.044,20Zm-4.4-2.925a3.234,3.234,0,0,1,1.244.259,7.948,7.948,0,0,0,6.942-.37A7.976,7.976,0,0,0,9.983,2.01a7.885,7.885,0,0,0-1.29.105A7.977,7.977,0,0,0,2.642,13.078a3.075,3.075,0,0,1,.209,1.8l-.567,2.811,2.806-.569A3.356,3.356,0,0,1,5.648,17.075Zm8.31-6.089a1,1,0,1,1,1-1A1,1,0,0,1,13.957,10.985Zm-3.981,0a1,1,0,1,1,1-1A1,1,0,0,1,9.977,10.985ZM6,10.985a1,1,0,1,1,1-1A1,1,0,0,1,6,10.985Z" transform="translate(-0.002)" fill="#222b45"/>
</svg>
