<svg xmlns="http://www.w3.org/2000/svg" xmlns:xlink="http://www.w3.org/1999/xlink" width="16" height="12" viewBox="0 0 16 12">
  <defs>
    <clipPath id="clip-path">
      <path id="_Icon_Color" data-name="🎨 Icon Color" d="M-6.049,11.707l5.7-4.99a1.061,1.061,0,0,0,.125-.126h0l.015-.018,0,0,.013-.016,0-.005.011-.016,0-.005.011-.015,0-.006.01-.016,0-.005.01-.017,0,0,.011-.018,0,0,.011-.02h0A.894.894,0,0,0,0,6.048v0c0-.007,0-.014,0-.02s0-.01,0-.015S0,6,0,6H0c0-.008,0-.017,0-.025V5.969c0-.006,0-.013,0-.019V5.9l0-.013V5.877l0-.015,0-.009,0-.015,0-.009,0-.015,0-.009,0-.015,0-.01,0-.014,0-.011,0-.012,0-.012,0-.01L-.05,5.707l0-.007-.007-.018,0,0-.008-.021h0a.991.991,0,0,0-.265-.363l-5.714-5a1.264,1.264,0,0,0-1.616,0,.915.915,0,0,0,0,1.415L-3.9,5H-14.857A1.079,1.079,0,0,0-16,6a1.079,1.079,0,0,0,1.143,1H-3.9l-3.763,3.293a.914.914,0,0,0,0,1.414A1.228,1.228,0,0,0-6.857,12,1.228,1.228,0,0,0-6.049,11.707Z" transform="rotate(180)" fill="#8f9bb3"/>
    </clipPath>
  </defs>
  <g id="_22_Icons_Line_Left_arrow_long" data-name="22) Icons/Line/Left arrow long" transform="translate(16 0) rotate(180)">
    <path id="_Icon_Color-2" data-name="🎨 Icon Color" d="M-6.049,11.707l5.7-4.99a1.061,1.061,0,0,0,.125-.126h0l.015-.018,0,0,.013-.016,0-.005.011-.016,0-.005.011-.015,0-.006.01-.016,0-.005.01-.017,0,0,.011-.018,0,0,.011-.02h0A.894.894,0,0,0,0,6.048v0c0-.007,0-.014,0-.02s0-.01,0-.015S0,6,0,6H0c0-.008,0-.017,0-.025V5.969c0-.006,0-.013,0-.019V5.9l0-.013V5.877l0-.015,0-.009,0-.015,0-.009,0-.015,0-.009,0-.015,0-.01,0-.014,0-.011,0-.012,0-.012,0-.01L-.05,5.707l0-.007-.007-.018,0,0-.008-.021h0a.991.991,0,0,0-.265-.363l-5.714-5a1.264,1.264,0,0,0-1.616,0,.915.915,0,0,0,0,1.415L-3.9,5H-14.857A1.079,1.079,0,0,0-16,6a1.079,1.079,0,0,0,1.143,1H-3.9l-3.763,3.293a.914.914,0,0,0,0,1.414A1.228,1.228,0,0,0-6.857,12,1.228,1.228,0,0,0-6.049,11.707Z" transform="rotate(180)" fill="#8f9bb3"/>
  </g>
</svg>
