<svg xmlns="http://www.w3.org/2000/svg" width="20" height="20" viewBox="0 0 20 20">
  <g id="_22_Icons_Line_Message_circle_Copy" data-name="22) Icons/Line/Message circle Copy" transform="translate(0.001 0)">
    <path id="Shape" d="M14.449,20a11.016,11.016,0,0,1-4.776-1.267,18.818,18.818,0,0,1-4.857-3.551,16.976,16.976,0,0,1-4.485-7.3C-.346,5.36.02,3.232,1.363,1.889c.5-.5.662-.669,1.16-1.161A2.672,2.672,0,0,1,4.394,0a2.579,2.579,0,0,1,1.83.729A31.79,31.79,0,0,1,8.978,4.255c.52.576.481,1.277-.118,2.083a5.282,5.282,0,0,1-.436.509c-.085.09-.152.157-.28.285L7.378,7.9a6.79,6.79,0,0,0,1.916,2.8,7.5,7.5,0,0,0,2.766,1.926.05.05,0,0,0,.035-.01l.766-.766a5.7,5.7,0,0,1,.952-.828,1.927,1.927,0,0,1,1.043-.359,1.293,1.293,0,0,1,.88.352,29.937,29.937,0,0,1,3.533,2.765,2.7,2.7,0,0,1,.005,3.682c-.3.319-.683.7-1.168,1.169A5.03,5.03,0,0,1,14.449,20ZM4.384,2a.687.687,0,0,0-.459.15c-.487.479-.647.64-1.144,1.145-.876.876-1.024,2.5-.4,4.459A15.465,15.465,0,0,0,6.23,13.769C8.8,16.338,12.017,18,14.435,18a3.128,3.128,0,0,0,2.272-.792c.456-.44.832-.816,1.118-1.118a.711.711,0,0,0,.005-.919,27.9,27.9,0,0,0-3.049-2.378,6.818,6.818,0,0,0-.5.474l-.767.767a1.868,1.868,0,0,1-1.368.559c-1.152,0-2.664-.879-4.26-2.476A9.7,9.7,0,0,1,5.644,9a2.188,2.188,0,0,1,.321-2.512l.767-.767c.125-.125.18-.181.246-.25.089-.093.165-.179.227-.256A29.64,29.64,0,0,0,4.82,2.153.622.622,0,0,0,4.384,2Z" fill="#222b45"/>
  </g>
</svg>
