<svg xmlns="http://www.w3.org/2000/svg" xmlns:xlink="http://www.w3.org/1999/xlink" width="46.883" height="40.681" viewBox="0 0 46.883 40.681">
  <defs>
    <filter id="Fill_1" x="0" y="0" width="46.883" height="40.681" filterUnits="userSpaceOnUse">
      <feOffset dy="2" input="SourceAlpha"/>
      <feGaussianBlur stdDeviation="2" result="blur"/>
      <feFlood flood-opacity="0.2"/>
      <feComposite operator="in" in2="blur"/>
      <feComposite in="SourceGraphic"/>
    </filter>
  </defs>
  <g id="Car" transform="translate(33.231 34.385) rotate(-150)">
    <g transform="matrix(-0.87, 0.5, -0.5, -0.87, 45.97, 13.16)" filter="url(#Fill_1)">
      <path id="Fill_1-2" data-name="Fill 1" d="M30.878,9.494l.1-1.883h0l.009-.164a21.1,21.1,0,0,0-.34-3.715c-.354-1.07-1.669-1.618-2.762-1.892A1.6,1.6,0,0,0,26.7,1.255l-2.96-.163a1.653,1.653,0,0,0-1.044.285l-.433-.024-1.316-.073L20.512.025,20.064,0l.114,1.239L12.313.806a1.661,1.661,0,0,0-1.008-.4L4.072.009A1.632,1.632,0,0,0,2.936.364C2.053.446.7.714.56,1.6L.28,6.97,0,12.342c.043.894,1.365,1.31,2.233,1.488a1.64,1.64,0,0,0,1.093.479l7.233.4a1.651,1.651,0,0,0,1.044-.285l7.916.436L19.3,15.975l.448.025.512-1.1,1.291.071.44.032a1.667,1.667,0,0,0,1,.391l2.96.163A1.654,1.654,0,0,0,27,15.262c1.143-.135,2.631-.52,3.118-1.6a21.046,21.046,0,0,0,.724-3.656l.027-.512Z" transform="translate(33.37 32.68) rotate(-152)" fill="#fff"/>
    </g>
    <rect id="Rectangle" width="2" height="5" rx="1" transform="translate(2 6)" fill="#242e42"/>
    <rect id="Rectangle-2" data-name="Rectangle" width="2" height="4" rx="1" transform="translate(2 3)" fill="#f52d56"/>
    <rect id="Rectangle-3" data-name="Rectangle" width="1" height="5" rx="0.5" transform="translate(31 7)" fill="#242e42"/>
    <rect id="Rectangle-4" data-name="Rectangle" width="2" height="4" rx="1" transform="translate(2 10)" fill="#f52d56"/>
    <path id="Path" d="M7.313,6.556H7.305a11.819,11.819,0,0,1-.875,4.061,2.312,2.312,0,0,1-1.3,1.363l-.016,0a1.2,1.2,0,0,1-.205.043,1,1,0,0,1-.441-.033L0,10.106C.641,9.7.983,6.871,1.092,5.8c0-1.075-.043-3.923-.638-4.4L5.09.017a1,1,0,0,1,.442.016,1.254,1.254,0,0,1,.2.064L5.748.1A2.339,2.339,0,0,1,6.9,1.6a11.873,11.873,0,0,1,.446,4.133h.008c-.007.139-.014.275-.022.409s-.013.27-.021.409Z" transform="translate(17 3)" fill="#242e42"/>
    <path id="Path-2" data-name="Path" d="M4.866,1.415,4.573,7.03,4.4,10.425l-.011.213c-.923,1.1-3.009,1.043-4.385.86L.6,0C1.987-.027,4.067.144,4.87,1.34Z" transform="translate(5.83 2.936)" fill="#242e42"/>
    <path id="Path_5" data-name="Path 5" d="M.19,0H10S5.769,2,4.621,2-.963,0,.19,0Z" transform="translate(10 2)" fill="#242e42"/>
    <path id="Path_5-2" data-name="Path 5" d="M.195,2h9.81S5.63,0,4.482,0-.958,2,.195,2Z" transform="translate(10 14)" fill="#242e42"/>
  </g>
</svg>
