<svg xmlns="http://www.w3.org/2000/svg" xmlns:xlink="http://www.w3.org/1999/xlink" width="13.333" height="13.333" viewBox="0 0 13.333 13.333">
  <defs>
    <clipPath id="clip-path">
      <path id="Path_46" data-name="Path 46" d="M93.7-3.337a.642.642,0,0,1-.307-.077L89.99-5.287,86.583-3.414a.642.642,0,0,1-.705-.055.718.718,0,0,1-.264-.689l.668-3.949L83.53-10.912a.726.726,0,0,1-.167-.7.678.678,0,0,1,.541-.477l3.808-.582,1.677-3.6a.666.666,0,0,1,.6-.4.666.666,0,0,1,.6.4l1.7,3.591L96.1-12.1a.678.678,0,0,1,.541.477.726.726,0,0,1-.167.7L93.718-8.113l.668,3.949a.718.718,0,0,1-.267.7A.645.645,0,0,1,93.7-3.337ZM89.99-6.774A.591.591,0,0,1,90.3-6.7l2.519,1.4-.481-2.953a.723.723,0,0,1,.194-.624l2-2.055-2.806-.435a.675.675,0,0,1-.474-.393l-1.263-2.63-1.263,2.63a.671.671,0,0,1-.5.379l-2.806.435,2,2.055a.723.723,0,0,1,.194.624l-.481,2.918,2.519-1.4A.587.587,0,0,1,89.99-6.774Z" fill="none" clip-rule="evenodd"/>
    </clipPath>
    <clipPath id="clip-path-2">
      <path id="Path_45" data-name="Path 45" d="M80,0h20V-20H80Z" fill="none"/>
    </clipPath>
  </defs>
  <g id="Group_59" data-name="Group 59" transform="translate(-83.333 16.667)" clip-path="url(#clip-path)">
    <g id="Group_58" data-name="Group 58" clip-path="url(#clip-path-2)">
      <path id="Path_44" data-name="Path 44" d="M78.333-21.667h23.333V1.667H78.333Z" fill="#fa0"/>
    </g>
  </g>
</svg>
