<svg xmlns="http://www.w3.org/2000/svg" xmlns:xlink="http://www.w3.org/1999/xlink" width="13.333" height="13.333" viewBox="0 0 13.333 13.333">
  <defs>
    <clipPath id="clip-path">
      <path id="Path_43" data-name="Path 43" d="M73.7-3.337a.642.642,0,0,1-.307-.077L69.99-5.287,66.583-3.414a.642.642,0,0,1-.705-.055.718.718,0,0,1-.264-.689l.668-3.949L63.53-10.912a.726.726,0,0,1-.167-.7.678.678,0,0,1,.541-.477l3.808-.582,1.677-3.6a.666.666,0,0,1,.6-.4.666.666,0,0,1,.6.4l1.7,3.591L76.1-12.1a.678.678,0,0,1,.541.477.726.726,0,0,1-.167.7L73.718-8.113l.668,3.949a.718.718,0,0,1-.267.7A.645.645,0,0,1,73.7-3.337Z" fill="none" clip-rule="evenodd"/>
    </clipPath>
    <clipPath id="clip-path-2">
      <path id="Path_42" data-name="Path 42" d="M60,0H80V-20H60Z" fill="none"/>
    </clipPath>
  </defs>
  <g id="Group_57" data-name="Group 57" transform="translate(-63.333 16.667)" clip-path="url(#clip-path)">
    <g id="Group_56" data-name="Group 56" clip-path="url(#clip-path-2)">
      <path id="Path_41" data-name="Path 41" d="M58.333-21.667H81.667V1.667H58.333Z" fill="#fa0"/>
    </g>
  </g>
</svg>
