<svg xmlns="http://www.w3.org/2000/svg" xmlns:xlink="http://www.w3.org/1999/xlink" width="47.195" height="60.5" viewBox="0 0 47.195 60.5">
  <defs>
    <filter id="Oval" x="0" y="0" width="47.195" height="55.667" filterUnits="userSpaceOnUse">
      <feOffset dy="5" input="SourceAlpha"/>
      <feGaussianBlur stdDeviation="2.5" result="blur"/>
      <feFlood flood-opacity="0.2"/>
      <feComposite operator="in" in2="blur"/>
      <feComposite in="SourceGraphic"/>
    </filter>
  </defs>
  <g id="ic_Pin" transform="translate(9.5 4.5)">
    <rect id="shadow" width="19.067" height="7.333" rx="3.5" transform="translate(4.4 36.667)" fill="rgba(179,179,179,0.8)"/>
    <g transform="matrix(1, 0, 0, 1, -9.5, -4.5)" filter="url(#Oval)">
      <g id="Oval-2" data-name="Oval" transform="translate(9.5 4.5)" fill="#222b45" stroke-miterlimit="10">
        <path d="M 14.09726905822754 37.66666412353516 C 13.34568881988525 37.66666412353516 12.50962924957275 37.01532363891602 11.48553943634033 36.0373420715332 C 10.65052890777588 35.23992538452148 9.601299285888672 34.11063385009766 8.451269149780273 32.77155303955078 C 6.343189239501953 30.31691360473633 4.134109020233154 27.43204307556152 3.198579072952271 25.91196441650391 C 0.6702790856361389 21.80390357971191 -1.000000953674316 19.08997344970703 -1.000000953674316 14.09727382659912 C -1.000000953674316 10.06464385986328 0.5703890323638916 6.273384094238281 3.421889066696167 3.421894073486328 C 6.273378849029541 0.570393979549408 10.0646390914917 -0.9999960064888 14.09726905822754 -0.9999960064888 C 18.1298999786377 -0.9999960064888 21.9211597442627 0.570393979549408 24.77264976501465 3.421894073486328 C 27.62414932250977 6.273384094238281 29.19453811645508 10.06464385986328 29.19453811645508 14.09727382659912 C 29.19453811645508 18.90072441101074 27.54286956787109 21.57871437072754 25.04274940490723 25.63234329223633 L 24.86996841430664 25.91254425048828 C 23.97287940979004 27.36793327331543 21.7626781463623 30.28328323364258 19.72885894775391 32.69389343261719 C 18.58157920837402 34.05371475219727 17.53868865966797 35.19813537597656 16.71292877197266 36.00343322753906 C 15.29748916625977 37.38382339477539 14.64359951019287 37.66666412353516 14.09726905822754 37.66666412353516 Z" stroke="none"/>
        <path d="M 14.09726905822754 36.66666412353516 C 15.52764892578125 36.66666412353516 22.33914947509766 28.11262321472168 24.01869964599609 25.3878231048584 C 26.60053825378418 21.1992244720459 28.19453811645508 18.72127342224121 28.19453811645508 14.09727382659912 C 28.19453811645508 6.311563968658447 21.88297843933105 3.969116278312868e-06 14.09726905822754 3.969116278312868e-06 C 6.311559200286865 3.969116278312868e-06 -9.41772441365174e-07 6.311563968658447 -9.41772441365174e-07 14.09727382659912 C -9.41772441365174e-07 18.74532318115234 1.476999044418335 21.20678329467773 4.050209045410156 25.3878231048584 C 5.84368896484375 28.30192375183105 12.66688919067383 36.66666412353516 14.09726905822754 36.66666412353516 M 14.09726905822754 38.66666412353516 C 13.14495944976807 38.66666412353516 12.24992942810059 38.15005493164062 10.79490947723389 36.76054382324219 C 9.936489105224609 35.94077301025391 8.863749504089355 34.78670501708984 7.692648887634277 33.42307281494141 C 5.520208835601807 30.89351463317871 3.32197904586792 28.02036476135254 2.346939086914062 26.43609428405762 C 1.075019001960754 24.36942481994629 -0.02346094138920307 22.5845947265625 -0.795570969581604 20.66353416442871 C -1.628540992736816 18.59105491638184 -2.000000953674316 16.56594467163086 -2.000000953674316 14.09727382659912 C -2.000000953674316 11.92503356933594 -1.574120998382568 9.816714286804199 -0.7341809272766113 7.830873966217041 C 0.0766790583729744 5.913784027099609 1.23707902431488 4.192483901977539 2.714779138565063 2.714783906936646 C 4.192479133605957 1.237083911895752 5.913779258728027 0.07668396830558777 7.830869197845459 -0.7341760396957397 C 9.816709518432617 -1.574115991592407 11.92502880096436 -1.999996066093445 14.09726905822754 -1.999996066093445 C 16.26950836181641 -1.999996066093445 18.37782859802246 -1.574115991592407 20.36366844177246 -0.7341760396957397 C 22.28075981140137 0.07668396830558777 24.00205993652344 1.237083911895752 25.47975921630859 2.714783906936646 C 26.95745849609375 4.192483901977539 28.11785888671875 5.913784027099609 28.92871856689453 7.830873966217041 C 29.7686595916748 9.816714286804199 30.19453811645508 11.92503356933594 30.19453811645508 14.09727382659912 C 30.19453811645508 16.46636390686035 29.80656814575195 18.51616477966309 28.97357940673828 20.54809379577637 C 28.22063827514648 22.38473320007324 27.14239883422852 24.13298416137695 25.89388847351074 26.15729331970215 L 25.72124862670898 26.43726348876953 C 24.78683853149414 27.95319366455078 22.58811950683594 30.85568428039551 20.4931697845459 33.3387336730957 C 19.30870819091797 34.74263381958008 18.27175903320312 35.88003540039062 17.41111946105957 36.71935272216797 C 15.95552921295166 38.13889312744141 15.0573787689209 38.66666412353516 14.09726905822754 38.66666412353516 Z" stroke="none" fill="#fff"/>
      </g>
    </g>
    <circle id="Path" cx="7.049" cy="7.049" r="7.049" transform="translate(7.049 7.049)" fill="#fff"/>
  </g>
</svg>
